<svg xmlns="http://www.w3.org/2000/svg" viewBox="0 0 16 16" fill="currentColor">
  <path fill-rule="evenodd" clip-rule="evenodd" d="M2 2.5A1.5 1.5 0 0 1 3.5 1h6.086a1.5 1.5 0 0 1 1.06.44l2.415 2.414A1.5 1.5 0 0 1 13.5 5v8a1.5 1.5 0 0 1-1.5 1.5h-8A1.5 1.5 0 0 1 2 13V2.5zm1.5-.5a.5.5 0 0 0-.5.5V13a.5.5 0 0 0 .5.5h8a.5.5 0 0 0 .5-.5V5H9.5A1.5 1.5 0 0 1 8 3.5V2H3.5zm5 .5v1a.5.5 0 0 0 .5.5h1L8.5 2.5z"/>
  <path d="M4.5 7a.5.5 0 0 1 .5-.5h2a.5.5 0 0 1 0 1H5a.5.5 0 0 1-.5-.5zm0 2a.5.5 0 0 1 .5-.5h1a.5.5 0 0 1 0 1H5a.5.5 0 0 1-.5-.5z" opacity="0.5"/>
  <circle cx="10" cy="10" r="3.5" fill="none" stroke="currentColor" stroke-width="1"/>
  <line x1="10" y1="8.5" x2="10" y2="11.5" stroke="currentColor" stroke-width="1" stroke-linecap="round"/>
  <line x1="8.5" y1="10" x2="11.5" y2="10" stroke="currentColor" stroke-width="1" stroke-linecap="round"/>
</svg>
